<?xml version="1.0" encoding="UTF-8" standalone="no"?>
<!-- Created with Inkscape (http://www.inkscape.org/) -->

<svg
   width="380"
   height="286"
   viewBox="0 0 380 286"
   xmlns:inkscape="http://www.inkscape.org/namespaces/inkscape"
   xmlns:sodipodi="http://sodipodi.sourceforge.net/DTD/sodipodi-0.dtd"
   xmlns="http://www.w3.org/2000/svg"
   xmlns:svg="http://www.w3.org/2000/svg">
  <defs
     id="defs6" />
  <sodipodi:namedview
     id="namedview4"
     pagecolor="#ffffff"
     bordercolor="#666666"
     borderopacity="1.0"
     inkscape:pageshadow="2"
     inkscape:pageopacity="0.0"
     inkscape:pagecheckerboard="0"
     showgrid="false"
     inkscape:zoom="1.8601399"
     inkscape:cx="190.03947"
     inkscape:cy="185.73872"
     inkscape:window-width="1294"
     inkscape:window-height="704"
     inkscape:window-x="72"
     inkscape:window-y="27"
     inkscape:window-maximized="1"
     inkscape:current-layer="g8" />
  <g
     inkscape:groupmode="layer"
     inkscape:label="Image"
     id="g8">
    <path
       style="fill:#ffffff;stroke:none"
       d="m 303,17 c -19.489,14.1869 -8.545,38.7925 -8,59 h 1 c 4.914,-13.6009 1.766,-26.9857 2.612,-40.999 C 298.989,28.7423 301.146,22.9274 303,17 M 139,60 v 5 C 122.74,67.8516 105.661,72.3644 91.0057,80.1393 83.5455,84.0972 77.431,89.99 70,94 l 1,7 76,-9.403 L 278,74 277,66 c -12.286,-3.3724 -23.08,-8.414 -36,-9.5459 -14.198,-1.2438 -29.552,1.9687 -42.609,-5.2111 -5.387,-2.9628 -6.819,-8.9286 -8.977,-14.2456 -3.379,-8.3265 -8.716,-16.3422 -18.425,-17.3506 -2.314,-0.2404 -4.69,-0.0664 -6.936,0.5448 -9.145,2.4877 -13.137,11.1312 -14.378,19.8086 C 148.349,49.2657 149.482,57.0006 139,60 m 47,-3 -29,4 c 1.252,-8.3382 -0.041,-21.2868 5.729,-28.0092 3.934,-4.5848 9.918,-3.5159 13.597,0.7468 5.298,6.1388 7.235,15.7021 9.674,23.2624 m 79,39 v 1 c 7.965,-0.001 16.122,0.407 24,-0.98 3.433,-0.605 6.84,-1.55 9.963,-3.124 17.9,-9.0239 15.084,-29.4053 18.976,-45.8956 C 319.605,39.9406 323.043,33.9968 327,28 c -3.127,0.9769 -6.148,1.9926 -8.881,3.8583 -14.938,10.1975 -8.517,29.9343 -16.06,44.0934 C 294.621,89.915 279.126,93.027 265,96 m 64,-34 c -2.217,13.5189 -6.928,23.5576 -18,32 v 1 c 15.247,-4.559 24.403,-17.3727 18,-33 m -189,6 -1,1 1,-1 m -2,1 v 1 L 107,87.0726 88,91 c 13.182,-12.4523 32.682,-17.9087 50,-22 m -64,39 c 0.9852,5.065 2.9901,6.85 8,8 v 12 c -9.9798,-3.735 -20.2754,-7.241 -30.9868,-8.014 -4.43,-0.32 -10.6981,0.135 -12.0916,5.357 -1.5277,5.723 4.716,8.486 9.1503,9.53 9.8065,2.31 27.6942,2.986 32.4898,13.76 3.6299,8.154 1.9714,20.521 2.7726,29.367 1.8838,20.801 5.4929,44.2 17.5527,61.809 7.917,11.56 23.467,10.972 36.113,12.06 26.925,2.318 54.059,2.52 81,0.333 10.114,-0.821 23.378,-0.254 32.523,-5.14 8.405,-4.489 12.603,-15.629 15.729,-24.062 5.67,-15.291 8.359,-31.786 9.57,-48 0.678,-9.091 -0.453,-19.938 2.01,-28.699 4.062,-14.449 25.078,-7.697 33.893,-15.98 4.974,-4.676 0.723,-10.544 -4.895,-11.465 C 297.335,117.3 286.005,121.33 277,124 v -8 h 6 c -1.623,-8.975 -7.989,-8.949 -16.004,-8.993 C 255.998,106.947 244.998,107 234,107 H 131 c -18.739,0 -38.4292,-1.708 -57,1 m 37,8 c -5.413,42.464 3.622,84.867 7,127 -10.647,-6.476 -12.776,-21.689 -15.147,-33 C 96.3554,178.988 97,147.499 97,116 Z"
       id="path390" />
  </g>
</svg>
