<?xml version="1.0" encoding="UTF-8" standalone="no"?>
<svg
   enable-background="new 0 0 64 64"
   height="64"
   id="Layer_1"
   version="1.1"
   viewBox="0 0 88 64"
   width="88"
   xml:space="preserve"
   sodipodi:docname="tray.svg"
   inkscape:version="1.1 (1:1.1+202105261517+ce6663b3b7)"
   xmlns:inkscape="http://www.inkscape.org/namespaces/inkscape"
   xmlns:sodipodi="http://sodipodi.sourceforge.net/DTD/sodipodi-0.dtd"
   xmlns="http://www.w3.org/2000/svg"
   xmlns:svg="http://www.w3.org/2000/svg"><defs
     id="defs11" /><sodipodi:namedview
     id="namedview9"
     pagecolor="#ffffff"
     bordercolor="#666666"
     borderopacity="1.0"
     inkscape:pageshadow="2"
     inkscape:pageopacity="0.0"
     inkscape:pagecheckerboard="0"
     showgrid="false"
     inkscape:zoom="2.9389126"
     inkscape:cx="30.28331"
     inkscape:cy="9.3572025"
     inkscape:window-width="1294"
     inkscape:window-height="704"
     inkscape:window-x="72"
     inkscape:window-y="27"
     inkscape:window-maximized="1"
     inkscape:current-layer="Layer_1" /><rect
     style="fill:#999999;fill-opacity:0.174022;stroke:none;stroke-width:1.17393;stroke-opacity:0.72549"
     id="rect35"
     width="87.571449"
     height="62.744331"
     x="0.40110397"
     y="0.6709674" /><g
     inkscape:groupmode="layer"
     id="layer1"
     inkscape:label="Layer 1"><g
       id="g6"
       transform="translate(14,-6)"
       style="fill:#b3b3b3"><path
         d="m 58.923,50.382 c 0.102,-0.244 0.102,-0.52 0,-0.764 C 58.821,49.373 58.627,49.179 58.382,49.077 58.26,49.026 58.13,49 58,49 H 55.5 C 55.499,36.355 45.512,26.048 32.995,25.525 32.995,25.516 33,25.508 33,25.5 V 22.837 C 34.442,22.404 35.499,21.084 35.5,19.5 35.499,17.566 33.934,16.001 32,16 c -1.934,0.001 -3.499,1.566 -3.5,3.5 0.001,1.584 1.058,2.904 2.5,3.337 V 25.5 c 0,0.009 0.005,0.017 0.005,0.025 C 18.488,26.048 8.501,36.355 8.5,49 H 6 c -0.13,0 -0.26,0.026 -0.382,0.077 -0.245,0.102 -0.439,0.296 -0.541,0.541 -0.102,0.244 -0.102,0.52 0,0.764 0.051,0.123 0.124,0.234 0.217,0.326 l 5.878,5.878 c 0.72,0.715 1.679,1.287 2.703,1.715 1.027,0.422 2.11,0.695 3.125,0.699 h 30 c 1.015,-0.004 2.098,-0.277 3.125,-0.699 1.024,-0.428 1.983,-1 2.703,-1.715 l 5.878,-5.878 c 0.093,-0.092 0.166,-0.203 0.217,-0.326 z M 30.5,19.5 c 0.002,-0.828 0.672,-1.498 1.5,-1.5 0.828,0.002 1.498,0.672 1.5,1.5 -0.002,0.828 -0.672,1.498 -1.5,1.5 -0.828,-0.002 -1.498,-0.672 -1.5,-1.5 z M 16.798,33.798 C 20.691,29.905 26.061,27.5 32,27.5 c 5.939,0 11.309,2.405 15.202,6.298 3.893,3.893 6.297,9.263 6.298,15.202 h -43 c 0,-5.939 2.405,-11.309 6.298,-15.202 z m 34.616,21.374 c -0.446,0.451 -1.223,0.939 -2.055,1.281 C 48.53,56.8 47.636,57.004 47,57 H 17 c -0.636,0.004 -1.53,-0.2 -2.359,-0.547 -0.832,-0.342 -1.608,-0.83 -2.055,-1.281 L 8.414,51 h 47.172 z"
         fill="#231f20"
         id="path2"
         style="fill:#b3b3b3" /><path
         d="m 24.684,32.052 c -3.209,1.068 -5.364,2.95 -6.702,4.558 -1.34,1.61 -1.882,2.95 -1.91,3.02 -0.205,0.513 0.045,1.095 0.558,1.3 0.513,0.205 1.095,-0.045 1.3,-0.558 V 40.37 c 0.032,-0.078 0.534,-1.251 1.7,-2.611 1.168,-1.361 2.983,-2.908 5.688,-3.811 0.523,-0.174 0.807,-0.74 0.632,-1.265 -0.176,-0.523 -0.742,-0.806 -1.266,-0.631 z"
         fill="#231f20"
         id="path4"
         style="fill:#b3b3b3" /></g></g><g
     inkscape:groupmode="layer"
     id="layer2"
     inkscape:label="Layer 2" /></svg>
